<?xml version="1.0" encoding="UTF-8"?>
<svg width="22px" height="22px" viewBox="0 0 22 22" version="1.1" xmlns="http://www.w3.org/2000/svg" xmlns:xlink="http://www.w3.org/1999/xlink">
    <!-- Generator: Sketch 47.1 (45422) - http://www.bohemiancoding.com/sketch -->
    <title>icon-pinterest</title>
    <desc>Created with Sketch.</desc>
    <defs></defs>
    <g id="Page-1" stroke="none" stroke-width="1" fill="none" fill-rule="evenodd">
        <g id="Desktop-HD" transform="translate(-235.000000, -1315.000000)" fill-rule="nonzero" fill="#BD081C">
            <g id="icon-pinterest" transform="translate(235.000000, 1315.000000)">
                <path d="M0,11 C0,15.5039981 2.70990122,19.3741769 6.58654751,21.0751411 C6.55420978,20.3067968 6.58007996,19.3845249 6.77669332,18.5489182 C6.98882879,17.656397 8.1917921,12.5547977 8.1917921,12.5547977 C8.1917921,12.5547977 7.83995767,11.8524224 7.83995767,10.8150282 C7.83995767,9.18391345 8.7855127,7.96672154 9.96131232,7.96672154 C10.9624882,7.96672154 11.4462606,8.71825024 11.4462606,9.61853246 C11.4462606,10.6248824 10.8046802,12.1292333 10.4748354,13.5223424 C10.199318,14.6890875 11.0595014,15.6398166 12.2107244,15.6398166 C14.2945673,15.6398166 15.6980245,12.9648401 15.6980245,9.79186265 C15.6980245,7.3820555 14.0746707,5.57761054 11.1215898,5.57761054 C7.78433678,5.57761054 5.70566792,8.06632173 5.70566792,10.8447789 C5.70566792,11.803269 5.98894638,12.4797742 6.43003293,13.0023518 C6.63440734,13.2429445 6.66286453,13.3399577 6.58913452,13.6167686 C6.53739417,13.8172625 6.41580433,14.3062088 6.36535748,14.4989417 C6.29162747,14.7770461 6.06655691,14.8766463 5.81432267,14.7744591 C4.27763405,14.1458137 3.56232361,12.4629586 3.56232361,10.5718485 C3.56232361,7.44673095 6.19590781,3.69943556 11.4229774,3.69943556 C15.6230009,3.69943556 18.3872295,6.73918156 18.3872295,10.0014111 C18.3872295,14.3165569 15.9877705,17.5399812 12.451317,17.5399812 C11.2638758,17.5399812 10.1475776,16.8984008 9.76469897,16.1688617 C9.76469897,16.1688617 9.12570555,18.7028457 8.98988711,19.1930856 C8.75834901,20.040334 8.30044685,20.8875823 7.88393697,21.5485654 C8.8721778,21.8408984 9.91733302,22 11.0012935,22 C17.0756115,22 22,17.074318 22,11 C22,4.92438852 17.0756115,0 11.0012935,0 C4.92568203,0 0,4.92438852 0,11 Z" id="Pinterest"></path>
            </g>
        </g>
    </g>
</svg>