<?xml version="1.0" encoding="UTF-8"?>
<svg width="22px" height="18px" viewBox="0 0 22 18" version="1.1" xmlns="http://www.w3.org/2000/svg" xmlns:xlink="http://www.w3.org/1999/xlink">
    <!-- Generator: Sketch 47.1 (45422) - http://www.bohemiancoding.com/sketch -->
    <title>icon-twitter</title>
    <desc>Created with Sketch.</desc>
    <defs></defs>
    <g id="Page-1" stroke="none" stroke-width="1" fill="none" fill-rule="evenodd">
        <g id="Desktop-HD" transform="translate(-348.000000, -1319.000000)" fill-rule="nonzero" fill="#1DA1F2">
            <g id="icon-twitter" transform="translate(348.000000, 1319.000000)">
                <path d="M22,2.13080503 C21.190541,2.49221795 20.3206481,2.73648156 19.4076228,2.84633942 C20.3395589,2.2839255 21.0551885,1.39339629 21.3922016,0.332328133 C20.5201361,0.853018749 19.5541607,1.23120201 18.5260616,1.43503858 C17.7026811,0.551881825 16.5296536,0 15.2314935,0 C12.7387395,0 10.7177878,2.03455788 10.7177878,4.54403226 C10.7177878,4.90017913 10.7577819,5.24700916 10.8347123,5.57958034 C7.0834705,5.39008363 3.75767951,3.58099362 1.53152639,0.831792525 C1.14301181,1.50293008 0.920428695,2.28352042 0.920428695,3.11628514 C0.920428695,4.69277787 1.71733421,6.08366265 2.9284246,6.8985228 C2.18849263,6.87494712 1.49257836,6.67054344 0.883975271,6.33019471 C0.883653392,6.34915248 0.883653392,6.36819127 0.883653392,6.38731107 C0.883653392,8.58900519 2.43948206,10.4256407 4.50429057,10.8430357 C4.125513,10.9468985 3.72677859,11.0023945 3.31508834,11.0023945 C3.0242657,11.0023945 2.74149018,10.9739578 2.46595705,10.9208922 C3.04027946,12.7262556 4.70715827,14.040013 6.68224148,14.0767133 C5.13751783,15.2954388 3.19132375,16.0219104 1.07670361,16.0219104 C0.712410841,16.0219104 0.353107282,16.0004411 0,15.9584747 C1.99745419,17.2477653 4.36998427,18 6.91890706,18 C15.2209517,18 19.7608105,11.0757951 19.7608105,5.07096112 C19.7608105,4.87392992 19.7564651,4.67795192 19.7477742,4.48310814 C20.6295768,3.84243264 21.3948572,3.04207437 22,2.13080503" id="Twitter"></path>
            </g>
        </g>
    </g>
</svg>