<?xml version="1.0" encoding="UTF-8"?>
<svg width="23px" height="16px" viewBox="0 0 23 16" version="1.1" xmlns="http://www.w3.org/2000/svg" xmlns:xlink="http://www.w3.org/1999/xlink">
    <!-- Generator: Sketch 47.1 (45422) - http://www.bohemiancoding.com/sketch -->
    <title>icon-youtube</title>
    <desc>Created with Sketch.</desc>
    <defs></defs>
    <g id="Page-1" stroke="none" stroke-width="1" fill="none" fill-rule="evenodd">
        <g id="Desktop-HD" transform="translate(-401.000000, -1319.000000)" fill-rule="nonzero" fill="#FF0000">
            <g id="icon-youtube" transform="translate(401.000000, 1319.000000)">
                <path d="M22.5194923,2.49824198 C23,4.28095344 23,7.99990593 23,7.99990593 C23,7.99990593 23,11.7190466 22.5194923,13.5015699 C22.2550048,14.4848364 21.4757417,15.2596338 20.4861381,15.5222898 C18.6924698,16 11.5,16 11.5,16 C11.5,16 4.30771954,16 2.51405123,15.5222898 C1.52444766,15.2596338 0.745184551,14.4848364 0.480697047,13.5015699 C0,11.7190466 0,7.99990593 0,7.99990593 C0,7.99990593 0,4.28095344 0.480697047,2.49824198 C0.745184551,1.51497548 1.52444766,0.740366185 2.51405123,0.477522078 C4.30771954,0 11.5,0 11.5,0 C11.5,0 18.6924698,0 20.4861381,0.477522078 C21.4757417,0.740366185 22.2550048,1.51497548 22.5194923,2.49824198 Z M9.20007573,11.4285446 L15.1753729,8.00009407 L9.20007573,4.5712673 L9.20007573,11.4285446 Z" id="Combined-Shape"></path>
            </g>
        </g>
    </g>
</svg>